<?xml version="1.0" standalone="no"?>
<!DOCTYPE svg PUBLIC "-//W3C//DTD SVG 20010904//EN"
 "http://www.w3.org/TR/2001/REC-SVG-20010904/DTD/svg10.dtd">
<svg version="1.0" xmlns="http://www.w3.org/2000/svg"
 width="200.000000pt" height="110.000000pt" viewBox="0 0 200.000000 110.000000"
 preserveAspectRatio="xMidYMid meet">

<g transform="translate(0.000000,110.000000) scale(0.100000,-0.100000)"
fill="#000000" stroke="none">
<path d="M146 1041 c-3 -5 -1 -22 5 -39 7 -20 7 -37 1 -49 -8 -16 -9 -68 -4
-210 2 -35 6 -43 21 -43 22 0 27 25 34 163 3 54 0 80 -9 88 -8 6 -11 23 -8 42
4 25 1 35 -15 44 -11 7 -22 9 -25 4z m24 -126 c0 -8 -4 -15 -10 -15 -5 0 -10
7 -10 15 0 8 5 15 10 15 6 0 10 -7 10 -15z"/>
<path d="M1500 1019 c0 -11 4 -29 10 -39 8 -14 5 -21 -15 -34 -21 -14 -25 -24
-24 -59 2 -34 3 -36 6 -12 3 17 8 34 13 39 8 8 3 -150 -5 -163 -2 -4 0 -31 4
-61 l7 -55 10 83 c9 80 26 114 32 62 4 -47 25 -130 32 -130 4 0 4 19 0 43 -4
23 -11 82 -15 131 -5 69 -4 90 6 97 11 7 9 13 -10 28 -19 14 -21 22 -14 36 14
25 4 55 -18 55 -13 0 -19 -7 -19 -21z"/>
<path d="M1224 1006 c-13 -7 -58 -10 -120 -8 -247 7 -294 4 -294 -18 0 -26 23
-31 128 -31 90 0 93 0 102 -24 5 -14 15 -25 22 -24 10 0 10 2 1 6 -27 10 -11
23 30 23 31 0 49 6 62 20 13 14 22 17 29 10 27 -27 96 10 83 45 -7 17 -14 18
-43 1z"/>
<path d="M1784 975 c6 -37 5 -46 -5 -43 -8 3 -16 15 -20 29 -6 22 -7 21 -8 -8
-1 -17 3 -34 8 -37 21 -14 20 -87 -4 -246 l-6 -35 16 35 c9 19 19 54 22 77 6
48 23 58 24 16 0 -16 9 -50 20 -78 12 -31 17 -39 14 -20 -13 76 -17 232 -6
239 6 4 10 26 9 49 -1 38 -2 39 -5 9 -6 -46 -28 -35 -28 14 0 30 -4 39 -19 42
-17 4 -18 0 -12 -43z"/>
<path d="M780 960 c0 -5 5 -10 10 -10 6 0 10 5 10 10 0 6 -4 10 -10 10 -5 0
-10 -4 -10 -10z"/>
<path d="M437 954 c-3 -3 -1 -18 4 -32 7 -18 6 -34 -1 -53 -7 -16 -8 -34 -3
-42 4 -9 6 -42 5 -75 l-4 -60 -34 5 c-43 7 -46 -12 -3 -21 54 -10 57 -8 65 39
6 41 9 45 35 45 26 0 28 -2 23 -30 -7 -31 9 -42 20 -14 13 35 6 56 -24 67 -27
10 -30 16 -30 54 0 23 -4 44 -9 47 -5 3 -7 15 -4 26 8 29 -22 62 -40 44z m19
-121 c-10 -10 -19 5 -10 18 6 11 8 11 12 0 2 -7 1 -15 -2 -18z"/>
<path d="M1573 870 c0 -25 2 -35 4 -22 2 12 2 32 0 45 -2 12 -4 2 -4 -23z"/>
<path d="M992 857 c8 -16 12 -17 19 -6 13 21 11 25 -10 25 -16 0 -18 -4 -9
-19z"/>
<path d="M1654 859 c0 -21 4 -23 25 -10 11 7 10 11 -6 19 -15 9 -19 7 -19 -9z"/>
<path d="M294 849 c0 -21 4 -23 25 -10 11 7 10 11 -6 19 -15 9 -19 7 -19 -9z"/>
<path d="M1240 803 c-8 -2 -22 -7 -30 -10 -36 -12 -129 -14 -177 -2 -49 11
-58 10 -120 -14 -38 -14 -78 -29 -90 -32 -25 -7 -27 -13 -13 -35 8 -12 18 -11
78 8 71 23 117 26 195 16 45 -6 46 -7 49 -47 2 -23 9 -42 16 -43 7 -1 8 0 2 3
-5 2 -10 21 -10 41 1 44 40 82 65 62 11 -9 21 -8 45 6 46 28 39 64 -10 47z"/>
<path d="M865 499 c-38 -12 -136 -14 -201 -4 -41 6 -58 3 -90 -12 -21 -11 -51
-23 -66 -27 -19 -4 -28 -13 -28 -27 0 -18 4 -20 33 -14 17 4 47 14 66 21 34
14 112 17 166 5 26 -5 31 -12 36 -46 l6 -40 2 40 c1 28 8 46 23 59 14 13 23
15 26 8 2 -7 12 -12 23 -12 23 0 62 37 54 50 -7 11 -10 11 -50 -1z"/>
<path d="M1185 493 c14 -37 17 -71 6 -77 -14 -9 -15 -53 -1 -61 5 -3 6 -15 1
-28 -13 -34 -1 -159 17 -177 14 -13 15 -13 10 2 -4 9 -2 18 5 21 18 6 29 228
12 247 -8 9 -11 27 -8 44 6 28 -7 46 -36 46 -8 0 -11 -6 -6 -17z m25 -108 c0
-8 -4 -15 -10 -15 -5 0 -10 7 -10 15 0 8 5 15 10 15 6 0 10 -7 10 -15z"/>
<path d="M1490 407 c0 -17 -38 -88 -61 -113 -10 -11 -19 -30 -19 -42 0 -18 6
-22 35 -22 40 0 44 -9 15 -35 -28 -25 -25 -38 8 -30 35 8 76 49 69 68 -3 8
-22 17 -41 21 -20 4 -36 9 -36 12 0 17 37 49 53 46 27 -5 20 7 -10 20 -22 9
-24 12 -11 15 30 7 36 73 7 73 -5 0 -9 -6 -9 -13z"/>
<path d="M654 354 c3 -9 6 -19 6 -22 0 -9 20 21 20 31 0 4 -7 7 -16 7 -11 0
-14 -5 -10 -16z"/>
<path d="M1340 351 c0 -14 5 -18 20 -14 11 3 20 7 20 9 0 2 -9 8 -20 14 -17 9
-20 8 -20 -9z"/>
<path d="M1550 326 c0 -2 7 -6 15 -10 8 -3 15 -1 15 4 0 6 -7 10 -15 10 -8 0
-15 -2 -15 -4z"/>
<path d="M886 293 c-4 -4 -14 -9 -24 -11 -17 -4 -161 -5 -217 -1 -34 2 -175
-69 -175 -89 0 -15 25 -10 82 19 48 24 73 24 114 -2 40 -24 44 -38 9 -31 -18
3 -25 0 -25 -12 0 -9 6 -16 14 -16 7 0 27 -3 44 -6 37 -8 60 23 42 56 -9 16
-8 20 5 20 11 0 15 -12 15 -49 0 -28 3 -52 8 -54 4 -3 6 14 4 36 -2 33 3 49
22 72 19 23 27 27 36 18 19 -17 70 9 70 36 0 13 -15 22 -24 14z"/>
</g>
</svg>
